# xmcd CD database file
#
# Track frame offsets:
#	150
#	15006
#	34229
#	48251
#	60171
#	78944
#	94935
#	107826
#	119438
#	133846
#	148099
#	162023
#	177530
#	191908
#	204213
#	219430
#	234280
#	247556
#	261138
#	280611
#
# Disc length: 3960 seconds
#
# Revision: 0
# Processed by: cddbd v1.5.2PL0 Copyright (c) Steve Scherf et al.
# Submitted via: CDex 1.51
#
DISCID=060f7614
DTITLE=Humphrey Bogart and Various Artists - Humphrey Bogart Era Disc 01
DYEAR=2002
DGENRE=Jazz
TTITLE0=As Time Goes By - Turner Layton - Composer Herman Hupfield
TTITLE1=Body and Soul - Jimmy Dorsey and His Orchestra - Composer Edward Heyman
TTITLE2=A Night in Tunisia - Charlie Parker - Composer Dizzy Gillespie
TTITLE3=Is There somebody Else? - Ella Fitzgerald - Composer D Robertson
TTITLE4=I Cover the Waterfront - Buddy Rich and His Orchestra - Composer Edward Heyman
TTITLE5=In the Land of Beginning Again - Bing Crosby - Composer G Meyer
TTITLE6=Things to Come - Dizzy Gillespie - Composer Dizzy Gillespie
TTITLE7=Ill Wind - Lena Horne - Composer Harold Arlen
TTITLE8=Solitude - Django Rheinhart - Composer Duke Ellington
TTITLE9=I'm Lost - Nat King Cole Trio - Composer Otis Rene
TTITLE10=Embraceable You - Tommy Dorsey - Composer George Gershwin
TTITLE11=I Don't Stand a Ghost of a Chance With You - Billie Holiday - Composer Bing Crosby
TTITLE12=Fiesta in Blue - Count Basie Orchestra - Composer Benny Goodman
TTITLE13=Pacific Coast Blues - Dinah Washington - Composer Charles Mingus
TTITLE14=Manhattan Serenade - Jo Stafford - Composer Harold Adamson
TTITLE15=Begin the Beguine - Artie Shaw and His Orchestra - Composer Cole Porter
TTITLE16=I 've Got You Under My Skin - Dinah Shore - Composer Cole Porter
TTITLE17=I Cried for You - Harry James and His Orchestra - Composer Abe Lyman
TTITLE18=Laura - The Blue Dahlia - Composer David Raskin
TTITLE19=Stardust - Louis Armstrong - Composer Hoagy Carmichael
EXTD=YEAR: 2002
EXTT0=
EXTT1=
EXTT2=
EXTT3=
EXTT4=
EXTT5=
EXTT6=
EXTT7=
EXTT8=
EXTT9=
EXTT10=
EXTT11=
EXTT12=
EXTT13=
EXTT14=
EXTT15=
EXTT16=
EXTT17=
EXTT18=
EXTT19=
PLAYORDER=
